<svg xmlns="http://www.w3.org/2000/svg" viewBox="0 0 48 32">
  <circle cx="24" cy="6" r="3" fill="none" stroke="#8a5a3a" stroke-width="2"/>
  <path d="M24 9v17" stroke="#8a5a3a" stroke-width="2.6" stroke-linecap="round"/>
  <path d="M15 13h18" stroke="#8a5a3a" stroke-width="2.4" stroke-linecap="round"/>
  <path d="M10 20c2 6 8 8 14 8s12-2 14-8l-4 1c-2 3-6 4-10 4s-8-1-10-4z" fill="#8a5a3a"/>
  <path d="M8 19l4 3-1-5zM40 19l-4 3 1-5z" fill="#8a5a3a"/>
  <path d="M20 12c1 3 1 7 0 11M26 27c2-1 5-2 7-5" stroke="#c98a5a" stroke-width="1" fill="none" stroke-linecap="round" opacity="0.7"/>
  <path d="M28 14c2 0 4 1 5 3" stroke="#5a3a2a" stroke-width="1.2" fill="none" stroke-linecap="round" opacity="0.8"/>
  <circle cx="14" cy="8" r="1" fill="#7fd0dc" opacity="0.6"/><circle cx="37" cy="10" r="0.8" fill="#7fd0dc" opacity="0.5"/>
</svg>
