<svg xmlns="http://www.w3.org/2000/svg" viewBox="0 0 48 32">
<defs><clipPath id="b"><path d="M1.84,16.5 C5.87,12.31 11.25,12.69 15.28,12.69 C26.37,12.69 34.99,14.48 39.92,14.48 L39.92,18.52 C34.99,18.52 26.37,20.08 15.28,20.08 C11.25,20.08 5.87,20.44 1.84,16.5 Z"/></clipPath></defs>
<path d="M39.42,14.48 Q45.52,14.69 47.92,16.5 Q45.52,18.31 39.42,18.52 Z" fill="#4a7c99" stroke="#16324a" stroke-width="0.6" stroke-linejoin="round" opacity="0.95"/>
<path d="M11.25,14.49 Q24.08,9.29 36.92,13.89 Z" fill="#4a7c99" stroke="#16324a" stroke-width="0.6" stroke-linejoin="round"/>
<path d="M13.28,19.28 Q27.6,23.68 38.92,18.52 Z" fill="#4a7c99" stroke="#16324a" stroke-width="0.6" stroke-linejoin="round"/>
<path d="M1.84,16.5 C5.87,12.31 11.25,12.69 15.28,12.69 C26.37,12.69 34.99,14.48 39.92,14.48 L39.92,18.52 C34.99,18.52 26.37,20.08 15.28,20.08 C11.25,20.08 5.87,20.44 1.84,16.5 Z" fill="#b6d2e0"/>
<g clip-path="url(#b)"><rect x="0" y="0" width="48" height="17.5" fill="#4a7c99"/>
<rect x="0" y="0" width="48" height="14.79" fill="#16324a" opacity="0.22"/>
</g>
<path d="M1.84,16.5 C5.87,12.31 11.25,12.69 15.28,12.69 C26.37,12.69 34.99,14.48 39.92,14.48 L39.92,18.52 C34.99,18.52 26.37,20.08 15.28,20.08 C11.25,20.08 5.87,20.44 1.84,16.5 Z" fill="none" stroke="#16324a" stroke-width="0.8" opacity="0.55"/>
<path d="M10.84,14.22 Q9.34,16.5 11.34,18.65" stroke="#16324a" stroke-width="0.8" fill="none" opacity="0.45"/>
<path d="M11.84,17 Q17.34,18 15.84,21 Q12.84,20.5 11.84,17 Z" fill="#4a7c99" stroke="#16324a" stroke-width="0.6" opacity="0.95"/>
<circle cx="5.84" cy="14.5" r="2" fill="#f6f4ea"/><circle cx="6.14" cy="14.5" r="1.1" fill="#0d161a"/><circle cx="5.34" cy="13.8" r="0.5" fill="#fff"/>
</svg>
