<svg xmlns="http://www.w3.org/2000/svg" viewBox="0 0 48 32">
  <defs><radialGradient id="halo"><stop offset="0" stop-color="#ffd76a" stop-opacity="0.6"/><stop offset="0.6" stop-color="#ffd76a" stop-opacity="0.2"/><stop offset="1" stop-color="#ffd76a" stop-opacity="0"/></radialGradient></defs>
  <ellipse cx="24" cy="16" rx="23.5" ry="15.5" fill="url(#halo)"/>
  <path d="M40 14l6-6-2 8 3 7-7-4z" fill="#141c2a" stroke="#0a0f18" stroke-width="0.6" stroke-linejoin="round"/>
  <path d="M22 10l4-9 4 9z" fill="#141c2a" stroke="#0a0f18" stroke-width="0.6" stroke-linejoin="round"/>
  <path d="M4 17c6-9 24-11 37-4-4 5-10 9-20 10-8 1-14-2-17-6z" fill="#141c2a" stroke="#0a0f18" stroke-width="0.8"/>
  <path d="M6 18c8 4 20 4 32-3-9 8-24 8-32 3z" fill="#f4f6f8"/>
  <ellipse cx="11" cy="13" rx="3.4" ry="1.7" fill="#f4f6f8" transform="rotate(-15 11 13)"/>
  <path d="M24 16c3 0 6 1 9 3-4 0-7 0-9-1z" fill="#f4f6f8" opacity="0.9"/>
  <path d="M15 19l-3 7 7-4z" fill="#141c2a" stroke="#0a0f18" stroke-width="0.6" stroke-linejoin="round"/>
  <path d="M30 10l2.5-4-1 3.5 2.5-1-3 4.5 0.8-3z" fill="#ffe66b"/>
  <path d="M35 14l2-3-0.8 2.6 2-0.8-2.4 3.6 0.6-2.4z" fill="#ffe66b"/>
  <circle cx="7.5" cy="15.5" r="1.3" fill="#fff6d6"/><circle cx="7.7" cy="15.5" r="0.75" fill="#0a0f18"/>
  <path d="M4.5 17.5l3 0.8" stroke="#0a0f18" stroke-width="0.8" stroke-linecap="round"/>
  <path d="M42 5l0.5 1.5 1.5 0.5-1.5 0.5-0.5 1.5-0.5-1.5-1.5-0.5 1.5-0.5zM7 5l0.4 1.2 1.2 0.4-1.2 0.4-0.4 1.2-0.4-1.2-1.2-0.4 1.2-0.4zM44 27l0.4 1.2 1.2 0.4-1.2 0.4-0.4 1.2-0.4-1.2-1.2-0.4 1.2-0.4z" fill="#fff3c4"/>
</svg>
