<svg xmlns="http://www.w3.org/2000/svg" viewBox="0 0 48 32">
<defs><clipPath id="b"><path d="M0.85,16.5 C6.41,7.2 13.81,8.04 19.36,8.04 C27.68,8.04 34.16,13.33 37.86,13.33 L37.86,19.67 C34.16,19.67 27.68,23.9 19.36,23.9 C13.81,23.9 6.41,24.64 0.85,16.5 Z"/></clipPath><radialGradient id="halo"><stop offset="0" stop-color="#b3a4ea" stop-opacity="0.55"/><stop offset="0.6" stop-color="#b3a4ea" stop-opacity="0.18"/><stop offset="1" stop-color="#b3a4ea" stop-opacity="0"/></radialGradient></defs>
<ellipse cx="24" cy="16" rx="23.5" ry="15.5" fill="url(#halo)"/>
<path d="M37.36,13.33 L48.86,8.89 L43.36,16.5 L48.86,24.11 L37.36,19.67 Z" fill="#7c7ca8" stroke="#2a2a4a" stroke-width="0.6" stroke-linejoin="round" opacity="0.95"/>
<path d="M14.36,9.64 L16.36,2.34 L26.36,9.24 Z" fill="#7c7ca8" stroke="#2a2a4a" stroke-width="0.6" stroke-linejoin="round" opacity="1"/>
<path d="M0.85,16.5 C6.41,7.2 13.81,8.04 19.36,8.04 C27.68,8.04 34.16,13.33 37.86,13.33 L37.86,19.67 C34.16,19.67 27.68,23.9 19.36,23.9 C13.81,23.9 6.41,24.64 0.85,16.5 Z" fill="#f4f2fa"/>
<g clip-path="url(#b)"><rect x="0" y="0" width="48" height="18.57" fill="#7c7ca8"/>
<rect x="0" y="0" width="48" height="12.69" fill="#4d4d7a" opacity="0.5"/>
</g>
<path d="M0.85,16.5 C6.41,7.2 13.81,8.04 19.36,8.04 C27.68,8.04 34.16,13.33 37.86,13.33 L37.86,19.67 C34.16,19.67 27.68,23.9 19.36,23.9 C13.81,23.9 6.41,24.64 0.85,16.5 Z" fill="none" stroke="#2a2a4a" stroke-width="0.8" opacity="0.55"/>
<path d="M9.85,11.43 Q8.35,16.5 10.35,20.94" stroke="#2a2a4a" stroke-width="0.8" fill="none" opacity="0.45"/>
<path d="M10.85,17 Q16.35,18 14.85,21 Q11.85,20.5 10.85,17 Z" fill="#7c7ca8" stroke="#2a2a4a" stroke-width="0.6" opacity="0.95"/>
<circle cx="7.93" cy="14.14" r="1.4" fill="#f6f4ea"/><circle cx="8.23" cy="14.14" r="0.77" fill="#0a0a14"/><circle cx="7.43" cy="13.44" r="0.5" fill="#fff"/>
<path d="M1.35,15.9 Q6.85,18.4 12.85,17.4" stroke="#2a2a4a" stroke-width="1.1" fill="none" stroke-linecap="round"/>
<path d="M2.35,16.5 l0.8,2.6 l0.8,-2.6 Z" fill="#fbf7ff"/>
<path d="M4.65,16.85 l0.8,2.6 l0.8,-2.6 Z" fill="#fbf7ff"/>
<path d="M6.95,17.2 l0.8,2.6 l0.8,-2.6 Z" fill="#fbf7ff"/>
<path d="M9.25,17.55 l0.8,2.6 l0.8,-2.6 Z" fill="#fbf7ff"/>
<path d="M11.55,17.9 l0.8,2.6 l0.8,-2.6 Z" fill="#fbf7ff"/>
<path d="M11.85,13.54 q-0.8,4.23 0,8.04" stroke="#2a2a4a" stroke-width="0.9" fill="none" opacity="0.7"/><path d="M13.85,13.54 q-0.8,4.23 0,8.04" stroke="#2a2a4a" stroke-width="0.9" fill="none" opacity="0.7"/><path d="M15.85,13.54 q-0.8,4.23 0,8.04" stroke="#2a2a4a" stroke-width="0.9" fill="none" opacity="0.7"/><path d="M17.85,13.54 q-0.8,4.23 0,8.04" stroke="#2a2a4a" stroke-width="0.9" fill="none" opacity="0.7"/>
</svg>
